<?xml version="1.0" standalone="no"?>
<!DOCTYPE svg PUBLIC "-//W3C//DTD SVG 20010904//EN"
 "http://www.w3.org/TR/2001/REC-SVG-20010904/DTD/svg10.dtd">
<svg version="1.0" xmlns="http://www.w3.org/2000/svg"
 width="3072.000000pt" height="3072.000000pt" viewBox="0 0 3072.000000 3072.000000"
 preserveAspectRatio="xMidYMid meet">
<metadata>
Created by potrace 1.14, written by Peter Selinger 2001-2017
</metadata>
<g transform="translate(0.000000,3072.000000) scale(0.100000,-0.100000)"
fill="#000000" stroke="none">
<path d="M15029 23246 c-2 -2 -67 -7 -144 -11 -77 -3 -153 -8 -170 -9 -16 -2
-66 -6 -110 -10 -44 -4 -96 -9 -115 -11 -19 -2 -62 -7 -95 -10 -33 -3 -71 -8
-85 -10 -14 -2 -50 -7 -80 -10 -30 -4 -64 -9 -75 -11 -10 -2 -37 -6 -60 -9
-80 -11 -340 -56 -409 -71 -39 -9 -82 -18 -96 -20 -14 -3 -74 -16 -135 -30
-60 -14 -119 -27 -129 -29 -34 -8 -359 -96 -411 -112 -113 -34 -391 -125 -410
-134 -11 -5 -54 -20 -95 -35 -41 -14 -89 -32 -107 -40 -17 -8 -36 -14 -43 -14
-6 0 -21 -5 -33 -12 -12 -7 -26 -13 -32 -14 -5 -1 -30 -10 -55 -21 -25 -11
-65 -28 -90 -39 -25 -10 -76 -32 -115 -49 -38 -17 -86 -38 -105 -46 -82 -34
-537 -264 -670 -339 -359 -203 -742 -457 -1030 -682 -41 -33 -91 -71 -109 -86
-170 -133 -388 -323 -569 -497 -52 -49 -99 -89 -106 -87 -6 2 -123 51 -261
109 -137 58 -286 120 -330 138 -44 18 -136 56 -205 85 -524 216 -1298 520
-1760 690 -107 39 -204 76 -215 80 -122 52 -958 342 -1380 479 -328 107 -844
267 -925 287 -8 2 -55 15 -105 30 -49 14 -97 28 -105 30 -8 2 -46 12 -85 23
-220 61 -637 169 -685 177 -14 3 -31 7 -39 10 -31 11 -526 117 -646 139 -16 2
-41 7 -55 10 -14 2 -63 11 -110 19 -47 9 -96 18 -110 20 -14 2 -45 7 -70 10
-25 3 -58 8 -75 11 -16 3 -43 7 -60 10 -16 3 -68 9 -115 15 -47 6 -101 13
-120 15 -19 3 -64 7 -100 10 -35 3 -83 8 -105 10 -189 22 -600 21 -775 -1
-141 -17 -143 -18 -261 -48 -737 -187 -773 -784 -101 -1681 107 -143 311 -392
377 -461 6 -6 42 -47 81 -90 90 -102 617 -629 763 -764 63 -58 119 -110 125
-115 32 -29 291 -259 356 -315 76 -66 134 -117 154 -135 6 -6 92 -78 191 -160
99 -82 182 -152 185 -155 3 -3 75 -62 160 -130 85 -69 162 -130 170 -137 391
-316 1129 -874 1633 -1235 67 -48 127 -91 132 -95 6 -5 44 -32 85 -61 41 -29
143 -101 225 -159 469 -332 1399 -961 1935 -1308 118 -76 258 -166 310 -200
52 -34 190 -122 305 -195 116 -73 233 -147 260 -165 68 -44 574 -359 770 -480
88 -54 187 -115 220 -135 58 -36 258 -157 322 -196 18 -10 65 -39 105 -63 39
-24 81 -49 92 -55 12 -6 39 -23 61 -37 22 -14 59 -37 81 -50 23 -13 72 -42
109 -64 37 -22 82 -49 101 -60 19 -11 174 -103 346 -205 171 -102 335 -198
363 -215 48 -28 233 -135 308 -179 60 -34 562 -323 607 -348 25 -14 74 -42
110 -63 36 -21 90 -51 120 -67 30 -16 59 -33 65 -37 5 -5 35 -22 65 -38 30
-16 129 -72 220 -123 170 -96 396 -222 570 -317 30 -17 116 -64 190 -105 74
-41 167 -92 205 -113 80 -43 264 -144 375 -205 41 -23 83 -44 93 -47 9 -3 17
-9 17 -14 0 -5 5 -9 11 -9 6 0 101 -49 212 -109 201 -108 285 -153 447 -239
47 -24 121 -64 165 -87 44 -23 124 -66 178 -94 53 -28 139 -73 190 -100 211
-111 312 -163 502 -261 110 -57 225 -116 255 -133 88 -48 1631 -821 1895 -949
276 -134 564 -273 680 -328 44 -21 130 -61 190 -90 172 -82 315 -150 375 -177
30 -14 98 -46 150 -70 52 -25 120 -56 150 -70 30 -14 102 -47 158 -74 57 -27
105 -49 107 -49 1 0 49 -22 106 -49 57 -26 172 -79 254 -116 83 -37 179 -81
215 -97 36 -17 191 -86 345 -155 154 -69 294 -131 310 -138 81 -37 306 -135
310 -135 2 0 32 -13 67 -29 35 -17 180 -80 323 -141 143 -61 269 -115 280
-120 18 -8 99 -42 185 -77 19 -8 44 -18 55 -23 75 -33 275 -116 445 -185 58
-24 168 -69 245 -100 77 -32 172 -70 210 -85 39 -15 162 -65 275 -110 215 -85
304 -120 485 -189 61 -23 119 -46 130 -51 11 -5 38 -16 60 -23 52 -19 330
-123 375 -142 90 -36 673 -246 995 -357 463 -160 1010 -338 1305 -424 84 -25
194 -58 320 -95 91 -27 385 -109 445 -124 28 -7 112 -29 188 -50 76 -20 146
-38 155 -40 9 -2 94 -22 187 -45 142 -34 305 -71 417 -94 104 -22 493 -96 532
-101 27 -3 52 -8 55 -9 3 -2 26 -7 51 -10 25 -3 110 -15 190 -25 80 -11 179
-23 220 -27 41 -3 82 -8 91 -9 94 -18 599 -26 759 -13 47 4 137 16 200 27 821
141 927 714 297 1611 -44 63 -83 117 -87 120 -3 3 -17 21 -30 40 -63 89 -287
357 -440 524 -64 70 -371 384 -460 471 -147 143 -202 195 -420 395 -31 28 -56
50 -185 165 -194 172 -234 206 -261 227 -16 13 -38 31 -49 41 -21 20 -402 338
-475 396 -23 19 -48 40 -54 46 -6 6 -20 17 -32 25 -11 8 -41 32 -65 52 -24 20
-125 100 -224 178 -99 78 -187 147 -195 153 -8 7 -44 34 -80 62 -36 27 -67 52
-70 55 -3 4 -174 132 -380 286 -431 323 -799 589 -1270 919 -117 82 -510 353
-595 410 -49 33 -95 65 -101 70 -6 6 -232 156 -502 335 -486 322 -491 325
-486 355 28 168 54 328 59 365 3 25 8 56 10 70 2 14 7 50 10 80 11 102 16 145
20 175 2 17 7 73 10 125 4 52 9 106 11 120 25 158 25 950 -1 1270 -11 130 -17
198 -20 225 -2 17 -7 55 -10 85 -3 30 -8 71 -10 90 -3 19 -7 53 -10 75 -23
184 -67 444 -95 570 -5 22 -11 55 -15 72 -3 18 -12 63 -21 100 -9 38 -17 75
-19 83 -31 139 -86 346 -140 525 -207 682 -460 1257 -845 1920 -16 27 -186
300 -210 335 -47 71 -160 235 -190 275 -90 123 -232 310 -264 348 -112 137
-194 236 -217 262 -155 176 -234 261 -419 445 -218 219 -284 282 -399 380 -35
30 -69 60 -75 65 -37 33 -140 120 -196 164 -36 28 -74 59 -84 68 -122 102
-488 361 -693 492 -311 198 -759 444 -1013 556 -36 15 -96 43 -135 60 -397
182 -937 367 -1415 485 -135 33 -310 72 -390 86 -14 3 -32 7 -40 9 -8 2 -37 7
-65 11 -27 3 -52 8 -55 9 -7 4 -169 33 -225 39 -41 5 -102 14 -145 21 -14 3
-56 7 -95 11 -38 3 -72 8 -75 9 -3 2 -41 6 -85 10 -44 4 -90 8 -102 10 -13 2
-71 7 -130 10 -60 4 -124 9 -143 12 -43 5 -836 14 -841 9z m-8284 -2920 c22
-2 65 -7 95 -10 92 -9 196 -22 251 -31 14 -3 43 -7 65 -10 114 -17 266 -45
434 -81 91 -20 173 -37 183 -39 116 -24 804 -210 815 -220 2 -2 -51 -75 -117
-164 -192 -257 -443 -644 -584 -901 -17 -30 -50 -91 -74 -134 -58 -106 -234
-465 -268 -546 -15 -36 -38 -90 -52 -120 -23 -49 -44 -100 -103 -252 l-19 -46
76 -59 c41 -32 80 -63 87 -69 6 -5 126 -96 266 -202 140 -106 260 -196 265
-200 53 -42 540 -390 755 -539 356 -249 1387 -927 1714 -1128 18 -11 130 -81
249 -155 306 -191 1009 -615 1345 -811 79 -46 155 -91 170 -100 292 -172 1282
-730 1717 -967 72 -39 164 -89 205 -112 41 -22 89 -48 105 -56 17 -8 53 -27
80 -42 28 -15 100 -54 160 -86 61 -32 137 -73 170 -91 64 -35 226 -120 420
-222 66 -34 176 -91 245 -125 69 -35 127 -66 130 -69 14 -16 1374 -694 1785
-889 55 -26 154 -73 220 -105 187 -89 418 -197 690 -322 331 -151 305 -140
537 -243 112 -50 217 -97 233 -105 17 -7 50 -22 75 -33 25 -11 128 -56 230
-100 102 -44 262 -113 355 -152 165 -70 218 -93 260 -111 64 -27 404 -166 480
-195 50 -19 99 -39 110 -44 239 -109 1692 -637 1856 -674 24 -5 34 6 156 192
145 219 208 322 313 507 9 17 29 53 45 80 96 170 291 570 376 773 30 72 53
130 74 182 9 25 21 54 26 65 15 34 59 155 102 282 23 68 45 123 48 123 5 0
201 -162 235 -194 6 -6 40 -36 75 -66 341 -294 710 -659 939 -930 30 -36 57
-67 60 -70 4 -3 19 -23 35 -45 17 -22 32 -42 35 -45 9 -9 86 -114 121 -165 19
-27 37 -51 42 -53 4 -2 7 -8 7 -13 0 -5 20 -40 45 -79 149 -232 239 -503 228
-685 -23 -383 -349 -568 -1003 -568 -113 0 -316 10 -375 18 -16 3 -57 7 -90
10 -33 3 -89 10 -125 15 -36 5 -83 11 -105 14 -34 5 -188 29 -250 40 -11 2
-103 20 -205 41 -102 20 -193 39 -203 41 -10 2 -26 5 -35 8 -9 3 -28 8 -42 10
-14 3 -65 15 -115 27 -49 11 -97 22 -105 24 -8 2 -51 13 -95 25 -44 12 -87 23
-95 25 -32 6 -223 59 -389 107 -96 28 -180 51 -185 52 -6 1 -33 9 -61 18 -27
9 -124 40 -215 68 -369 115 -1091 363 -1330 457 -36 14 -105 40 -155 58 -49
18 -133 49 -185 70 -52 20 -135 53 -185 72 -104 40 -231 90 -260 103 -11 4
-78 31 -150 60 -71 28 -149 60 -172 71 -24 10 -46 19 -49 19 -3 0 -20 6 -37
14 -18 8 -61 27 -97 41 -36 14 -78 32 -95 40 -16 7 -54 23 -84 35 -30 11 -73
29 -95 39 -23 10 -81 36 -131 56 -49 21 -94 42 -99 47 -6 4 -16 8 -23 8 -7 0
-36 11 -65 24 -113 52 -190 86 -193 86 -3 0 -106 45 -170 75 -101 46 -187 85
-190 85 -2 0 -62 26 -132 59 -119 54 -155 70 -273 124 -25 11 -96 44 -158 73
-63 30 -115 54 -117 54 -3 0 -283 132 -640 303 -192 92 -1322 657 -1480 740
-66 34 -192 100 -280 146 -189 99 -311 164 -380 201 -27 15 -90 49 -140 75
-49 26 -112 60 -140 75 -27 15 -86 46 -130 70 -44 24 -165 90 -270 148 -104
57 -212 117 -240 132 -73 40 -137 76 -253 142 -57 32 -106 58 -109 58 -4 0
-14 6 -22 14 -9 7 -52 33 -96 56 -121 66 -148 81 -177 101 -14 11 -29 19 -32
19 -3 0 -43 22 -88 49 -46 27 -99 58 -118 68 -73 41 -398 232 -438 257 -23 14
-44 26 -46 26 -2 0 -42 23 -88 50 -95 58 -80 49 -218 132 -58 35 -113 68 -122
73 -9 6 -76 46 -148 90 -72 44 -145 89 -163 99 -18 11 -54 34 -82 51 -27 17
-111 69 -185 115 -139 86 -160 100 -413 261 -81 52 -159 101 -173 109 -78 47
-914 599 -924 610 -3 3 -54 39 -115 79 -60 41 -130 89 -155 106 -186 130 -407
286 -470 332 -171 125 -447 326 -474 346 -31 23 -127 97 -161 122 -11 9 -33
26 -50 38 -265 198 -880 696 -1065 863 -19 17 -82 73 -140 124 -294 260 -647
608 -863 851 -136 153 -365 447 -397 509 -7 14 -16 27 -19 30 -14 12 -111 182
-149 261 -137 285 -153 521 -49 686 92 145 233 236 466 299 30 8 68 16 85 19
17 2 41 6 54 9 12 3 59 8 105 12 45 3 83 8 85 9 5 4 420 -4 467 -9z"/>
<path d="M6859 15753 c0 -5 -2 -17 -3 -28 -3 -19 -15 -127 -21 -185 -1 -14 -6
-61 -9 -105 -4 -44 -9 -98 -11 -120 -27 -262 -27 -998 0 -1290 2 -22 7 -71 10
-110 3 -38 8 -92 11 -120 6 -67 43 -353 49 -385 3 -14 7 -43 10 -65 3 -22 7
-53 10 -70 33 -183 50 -268 71 -366 13 -63 26 -124 28 -135 12 -60 74 -298
108 -419 22 -77 41 -147 43 -155 10 -45 142 -429 198 -575 201 -529 469 -1065
766 -1530 103 -162 252 -383 303 -450 5 -5 54 -71 109 -145 129 -171 279 -354
443 -539 178 -201 550 -570 726 -721 14 -12 52 -45 84 -73 107 -93 380 -310
522 -413 114 -83 441 -304 519 -351 11 -6 72 -43 135 -81 301 -181 702 -388
965 -499 33 -14 80 -34 104 -45 298 -135 1010 -368 1351 -443 310 -68 487
-104 605 -120 22 -3 63 -10 90 -15 28 -5 91 -14 140 -20 50 -6 104 -13 120
-15 17 -2 57 -7 90 -10 33 -3 74 -8 90 -10 17 -2 64 -7 105 -10 41 -3 98 -8
125 -10 288 -25 985 -25 1225 -1 19 2 76 7 125 11 50 3 99 8 110 10 11 2 52 7
90 10 39 4 117 13 175 21 58 7 119 16 135 18 17 2 46 6 65 10 19 3 49 7 65 10
26 3 83 13 170 30 11 2 40 7 65 11 378 61 1206 301 1535 444 11 5 72 30 135
56 235 95 632 285 860 411 73 41 330 191 365 214 13 8 45 28 72 44 116 70 364
242 558 387 193 144 487 381 493 397 1 4 -145 70 -325 146 -181 77 -350 149
-378 162 -27 12 -189 83 -360 158 -272 118 -522 229 -665 293 -374 170 -477
217 -540 246 -41 19 -154 71 -250 115 -96 44 -224 104 -285 132 -107 51 -139
66 -315 148 -47 21 -130 61 -185 87 -55 26 -152 73 -215 103 -63 30 -178 85
-255 122 -77 37 -198 95 -270 130 -389 187 -1683 836 -2115 1062 -85 44 -211
110 -280 146 -69 35 -156 81 -195 102 -38 21 -124 66 -190 100 -66 34 -151 79
-190 100 -38 21 -110 59 -160 85 -83 44 -137 73 -270 145 -27 15 -140 76 -250
135 -251 136 -292 158 -335 182 -19 11 -75 41 -125 68 -49 26 -94 51 -100 55
-5 4 -46 27 -90 50 -64 35 -380 210 -715 398 -86 48 -505 286 -560 317 -30 18
-104 60 -165 95 -154 88 -152 87 -330 190 -88 51 -173 101 -190 111 -16 10
-48 29 -70 41 -22 12 -48 27 -57 33 -10 5 -55 32 -100 59 -662 389 -1307 779
-1740 1050 -98 61 -186 116 -195 121 -10 6 -29 18 -43 26 -14 9 -77 49 -140
88 -338 210 -717 453 -1165 746 -282 184 -315 205 -316 198z"/>
</g>
</svg>
